<mxfile host="65bd71144e">
    <diagram id="QU_LUUgG5Db0DZMeSH_z" name="Page-1">
        <mxGraphModel dx="2135" dy="983" grid="1" gridSize="10" guides="1" tooltips="1" connect="1" arrows="1" fold="1" page="1" pageScale="1" pageWidth="850" pageHeight="1100" background="#ffffff" math="0" shadow="0">
            <root>
                <mxCell id="0"/>
                <mxCell id="1" parent="0"/>
                <mxCell id="2" value="Customer" style="shape=umlActor;verticalLabelPosition=bottom;verticalAlign=top;html=1;outlineConnect=0;" vertex="1" parent="1">
                    <mxGeometry x="660" y="280" width="30" height="60" as="geometry"/>
                </mxCell>
                <mxCell id="3" value="Insurance company" style="shape=umlActor;verticalLabelPosition=bottom;verticalAlign=top;html=1;outlineConnect=0;" vertex="1" parent="1">
                    <mxGeometry x="70" y="280" width="30" height="60" as="geometry"/>
                </mxCell>
                <mxCell id="5" value="" style="rounded=0;whiteSpace=wrap;html=1;" vertex="1" parent="1">
                    <mxGeometry x="170" y="120" width="380" height="420" as="geometry"/>
                </mxCell>
                <mxCell id="6" value="VecInsured System" style="text;html=1;strokeColor=none;fillColor=none;align=center;verticalAlign=middle;whiteSpace=wrap;rounded=0;" vertex="1" parent="1">
                    <mxGeometry x="260" y="150" width="200" height="30" as="geometry"/>
                </mxCell>
                <mxCell id="7" value="Add information of new vehicle" style="ellipse;whiteSpace=wrap;html=1;labelBackgroundColor=#FFFFFF;" vertex="1" parent="1">
                    <mxGeometry x="190" y="200" width="150" height="80" as="geometry"/>
                </mxCell>
                <mxCell id="8" value="Add information of new driver" style="ellipse;whiteSpace=wrap;html=1;labelBackgroundColor=#FFFFFF;" vertex="1" parent="1">
                    <mxGeometry x="370" y="200" width="150" height="80" as="geometry"/>
                </mxCell>
                <mxCell id="9" value="Calculate premium for insurance&amp;nbsp;" style="ellipse;whiteSpace=wrap;html=1;labelBackgroundColor=#FFFFFF;" vertex="1" parent="1">
                    <mxGeometry x="190" y="310" width="150" height="80" as="geometry"/>
                </mxCell>
                <mxCell id="10" value="Check validity of insured vehicle information with JPJ system" style="ellipse;whiteSpace=wrap;html=1;labelBackgroundColor=#FFFFFF;" vertex="1" parent="1">
                    <mxGeometry x="370" y="310" width="150" height="80" as="geometry"/>
                </mxCell>
                <mxCell id="11" value="Check if insured vehicle has any summon with JPJ system" style="ellipse;whiteSpace=wrap;html=1;labelBackgroundColor=#FFFFFF;" vertex="1" parent="1">
                    <mxGeometry x="190" y="420" width="150" height="80" as="geometry"/>
                </mxCell>
                <mxCell id="21" value="Pay insurance" style="ellipse;whiteSpace=wrap;html=1;labelBackgroundColor=#FFFFFF;" vertex="1" parent="1">
                    <mxGeometry x="370" y="420" width="150" height="80" as="geometry"/>
                </mxCell>
                <mxCell id="24" style="edgeStyle=none;html=1;entryX=0;entryY=1;entryDx=0;entryDy=0;" edge="1" parent="1" source="3" target="8">
                    <mxGeometry relative="1" as="geometry"/>
                </mxCell>
                <mxCell id="26" style="edgeStyle=none;html=1;entryX=0;entryY=1;entryDx=0;entryDy=0;" edge="1" parent="1" source="3" target="10">
                    <mxGeometry relative="1" as="geometry">
                        <Array as="points">
                            <mxPoint x="200" y="420"/>
                        </Array>
                    </mxGeometry>
                </mxCell>
                <mxCell id="27" style="edgeStyle=none;html=1;entryX=0;entryY=0.5;entryDx=0;entryDy=0;" edge="1" parent="1" source="3" target="11">
                    <mxGeometry relative="1" as="geometry"/>
                </mxCell>
                <mxCell id="25" style="edgeStyle=none;html=1;" edge="1" parent="1" source="3" target="9">
                    <mxGeometry relative="1" as="geometry"/>
                </mxCell>
                <mxCell id="29" style="edgeStyle=none;html=1;entryX=1;entryY=0;entryDx=0;entryDy=0;" edge="1" parent="1" source="2" target="21">
                    <mxGeometry relative="1" as="geometry"/>
                </mxCell>
                <mxCell id="23" style="edgeStyle=none;html=1;" edge="1" parent="1" source="3" target="7">
                    <mxGeometry relative="1" as="geometry"/>
                </mxCell>
            </root>
        </mxGraphModel>
    </diagram>
</mxfile>